<svg xmlns="http://www.w3.org/2000/svg" width="295.669" height="173.647" viewBox="0 0 7823 4594" shape-rendering="geometricPrecision" text-rendering="geometricPrecision" image-rendering="optimizeQuality" fill-rule="evenodd" clip-rule="evenodd"><defs><style>.fil1,.fil2{fill:#00afef}.fil0,.fil2{fill-rule:nonzero}.fil0{fill:#fefefe}</style></defs><g id="Layer_x0020_1"><g id="_901627829808"><path class="fil0" d="M5131 353h1911v93H5131v-93zm0-181h1911v93H5131v-93zm0 362h1911v93H5131v-93zM1908 2794c10 0 17-5 21-14s4-18-2-26c-150-184-300-329-449-514s-297-369-445-554l768-752c8-8 10-16 8-26-3-9-11-14-24-14h-570c-8 0-14 3-20 8-89 103-179 207-269 311s-181 208-273 311h4c-21 21-43 46-65 75-23 29-45 57-66 83L518 24c0-16-7-24-23-24H24C8 0 0 8 0 24v2786c0 16 8 24 24 24h471c16 0 23-8 23-24v-649c29-29 57-59 82-89s50-59 77-85l649 878c5 6 12 8 20 8l562-79z"/><path class="fil0" d="M3661 2834c19 0 25-9 20-28-13-58-25-128-36-210-10-81-15-165-15-249v-661c0-103-13-204-38-305-25-100-70-189-135-267-64-78-151-141-259-190-170-77-358-83-544-65-54 5-104 12-152 20-13 5-20 14-20 27 0 6 4 28 10 68 7 39 15 85 24 138s15 89 18 107c0 18 9 25 27 20 32-5 64-10 97-14s64-6 93-6c95 0 131 13 186 38s97 55 125 91c27 35 45 73 53 112 8 40 12 72 12 95v4c-404 0-709 63-916 188-207 126-311 310-311 553 0 58 10 116 30 176 19 59 49 114 87 164 210 276 715 305 981 101 57-44 104-80 141-109l24-24 67 246c5 13 14 19 28 19l403-39zm-522-701c0 35-5 68-16 99-26 66-77 128-150 186-184 145-562 131-562-170 0-232 261-306 449-328 88-11 181-16 279-16v229zm1767 489c0-19-8-28-24-28-63-5-127-19-190-40s-116-52-158-95c-24-23-44-52-60-85-15-33-28-76-37-128-9-53-17-119-22-196-5-78-8-173-8-283V24c0-16-8-24-24-24h-471c-15 0-23 8-23 24v1897c0 193 18 359 56 499 37 140 103 256 197 348 43 45 93 82 151 113 57 30 117 55 177 73 61 18 123 32 185 42 62 9 122 13 180 13 15 0 23-6 23-19l48-368zm162 462c-19-3-24-14-20-28 62-243 83-557 83-808V910c0-16 8-23 24-23h471c15 0 23 7 23 23v1116c0 29 3 56 8 80 6 23 12 46 20 67h-4c29 68 81 132 154 192 74 59 164 89 270 89 142 0 284-48 344-145 61-96 91-227 91-393V910c0-16 8-23 24-23h459c16 0 24 8 24 23v1089c0 174-22 318-67 431-45 114-103 203-174 267-72 65-151 110-238 137-159 48-392 55-552 6-73-23-137-51-192-85-56-35-102-72-139-113s-67-81-92-121c0 190-31 378-72 563-5 24-7 37-7 40-6 13-16 21-29 19l-409-59zm2708-250c16 0 24-8 24-24V918c0-16-8-23-24-23h-471c-16 0-24 7-24 23v1892c0 16 8 24 24 24h471z"/><path class="fil1" d="M7303 102h475c25 0 45 19 45 41v514c0 22-20 41-45 41h-475c-24 0-45-19-45-41V143c0-22 21-41 45-41z"/><path class="fil2" d="M6656 4275h254v17c1 18 1 31 1 38 0 81-25 144-77 189s-125 67-219 67c-52 0-99-7-140-21-42-14-78-35-109-63-30-28-53-60-69-98-17-38-25-78-25-121s8-84 25-121c16-36 41-69 73-97s68-49 110-63 87-22 135-22c51 0 96 9 136 25 40 17 75 42 107 76l-76 52c-22-23-47-39-74-51-27-11-57-16-91-16-70 0-126 20-170 60s-66 92-66 156c0 66 22 119 66 159 44 41 101 61 171 61 60 0 107-12 141-37s51-59 51-102v-9h-154v-79zm-1172 296v-600l408 353c11 10 22 20 34 31 11 12 23 25 36 39v-401h96v601l-416-360c-11-10-22-20-32-31-11-11-21-22-30-34v402h-96zm-349 0v-578h104v578zm-226-437c-30-23-61-40-94-51s-67-17-103-17c-71 0-128 20-172 61-44 40-66 93-66 157 0 62 22 114 65 154 42 41 97 61 162 61 38 0 74-6 108-18s67-30 99-55v106c-28 18-59 32-92 41s-69 13-107 13c-49 0-94-7-136-21-42-15-78-36-110-64-31-28-55-61-72-98s-25-77-25-120c0-42 8-82 25-119s41-70 73-98c32-29 68-50 110-65 41-14 85-22 133-22 38 0 74 5 108 15s67 25 99 45l-5 95zm-765 437l-199-424-203 424h-109l311-600 310 600zm-924-259v259h-98v-578h146c42 0 75 3 99 8s44 13 60 24c20 14 35 33 46 55s17 46 17 72c0 46-13 83-38 109s-61 42-110 47l221 263h-117l-214-259h-12zm6-72h19c56 0 92-6 110-18 19-11 28-32 28-61 0-32-10-54-29-67-20-14-56-20-109-20h-19v166zm-816 46c-1-5-3-17-5-37-3-17-5-31-7-42-2 13-6 26-11 39s-11 27-18 41l-168 307-168-314c-7-13-13-25-18-37s-10-24-13-36c-1 12-2 25-4 38s-4 27-8 42l-69 284h-96l152-602 189 365c3 5 7 15 13 28 6 14 14 30 22 50 6-17 16-38 29-63 4-7 6-12 8-16l185-364 155 602h-97l-71-285zm-872 285v-578h104v578zm-627-116l84-34c8 25 22 45 43 59 21 13 48 20 81 20 31 0 56-8 74-23 18-16 27-37 27-63 0-34-31-64-94-90-8-4-15-7-20-9-71-31-118-59-141-84-24-26-36-56-36-93 0-47 18-85 54-114 35-29 82-44 139-44 48 0 87 8 119 25 32 16 54 40 66 71l-81 38c-13-19-27-32-42-40-16-9-33-13-53-13-28 0-51 7-67 20-17 13-25 31-25 53 0 34 36 67 109 97 5 2 10 4 13 5 64 27 107 52 131 77 23 26 35 57 35 95 0 54-19 98-57 130-39 32-90 48-156 48-54 0-99-11-134-34-35-22-58-55-69-97z"/></g></g></svg>