<?xml version="1.0" encoding="UTF-8"?>
<!DOCTYPE svg PUBLIC "-//W3C//DTD SVG 1.1//EN" "http://www.w3.org/Graphics/SVG/1.1/DTD/svg11.dtd">
<!-- Creator: CorelDRAW X7 -->
<svg xmlns="http://www.w3.org/2000/svg" xml:space="preserve" width="78.229mm" height="45.944mm" version="1.1" style="shape-rendering:geometricPrecision; text-rendering:geometricPrecision; image-rendering:optimizeQuality; fill-rule:evenodd; clip-rule:evenodd"
viewBox="0 0 7823 4594"
 xmlns:xlink="http://www.w3.org/1999/xlink">
 <defs>
  <style type="text/css">
   <![CDATA[
    .fil1 {fill:#00AFEF}
    .fil2 {fill:#00AFEF;fill-rule:nonzero}
    .fil0 {fill:#FEFEFE;fill-rule:nonzero}
   ]]>
  </style>
 </defs>
 <g id="Layer_x0020_1">
  <metadata id="CorelCorpID_0Corel-Layer"/>
  <g id="_901627829808">
   <path class="fil0" d="M5131 353l1911 0 0 93 -1911 0 0 -93zm0 -181l1911 0 0 93 -1911 0 0 -93zm0 362l1911 0 0 93 -1911 0 0 -93z"/>
   <path class="fil0" d="M1908 2794c10,0 17,-5 21,-14 4,-9 4,-18 -2,-26 -150,-184 -300,-329 -449,-514 -149,-185 -297,-369 -445,-554l768 -752c8,-8 10,-16 8,-26 -3,-9 -11,-14 -24,-14l-570 0c-8,0 -14,3 -20,8 -89,103 -179,207 -269,311 -90,104 -181,208 -273,311l4 0c-21,21 -43,46 -65,75 -23,29 -45,57 -66,83l-8 -1658c0,-16 -7,-24 -23,-24l-471 0c-16,0 -24,8 -24,24l0 2786c0,16 8,24 24,24l471 0c16,0 23,-8 23,-24l0 -649c29,-29 57,-59 82,-89 25,-30 50,-59 77,-85l649 878c5,6 12,8 20,8l562 -79z"/>
   <path class="fil0" d="M3661 2834c19,0 25,-9 20,-28 -13,-58 -25,-128 -36,-210 -10,-81 -15,-165 -15,-249l0 -661c0,-103 -13,-204 -38,-305 -25,-100 -70,-189 -135,-267 -64,-78 -151,-141 -259,-190 -170,-77 -358,-83 -544,-65 -54,5 -104,12 -152,20 -13,5 -20,14 -20,27 0,6 4,28 10,68 7,39 15,85 24,138 9,53 15,89 18,107 0,18 9,25 27,20 32,-5 64,-10 97,-14 33,-4 64,-6 93,-6 95,0 131,13 186,38 55,25 97,55 125,91 27,35 45,73 53,112 8,40 12,72 12,95l0 4c-404,0 -709,63 -916,188 -207,126 -311,310 -311,553 0,58 10,116 30,176 19,59 49,114 87,164 210,276 715,305 981,101 57,-44 104,-80 141,-109l24 -24 67 246c5,13 14,19 28,19l403 -39zm-522 -701c0,35 -5,68 -16,99 -26,66 -77,128 -150,186 -184,145 -562,131 -562,-170 0,-232 261,-306 449,-328 88,-11 181,-16 279,-16l0 229z"/>
   <path class="fil0" d="M4906 2622c0,-19 -8,-28 -24,-28 -63,-5 -127,-19 -190,-40 -63,-21 -116,-52 -158,-95 -24,-23 -44,-52 -60,-85 -15,-33 -28,-76 -37,-128 -9,-53 -17,-119 -22,-196 -5,-78 -8,-173 -8,-283l0 -1743c0,-16 -8,-24 -24,-24l-471 0c-15,0 -23,8 -23,24l0 1897c0,193 18,359 56,499 37,140 103,256 197,348 43,45 93,82 151,113 57,30 117,55 177,73 61,18 123,32 185,42 62,9 122,13 180,13 15,0 23,-6 23,-19l48 -368z"/>
   <path class="fil0" d="M5068 3084c-19,-3 -24,-14 -20,-28 62,-243 83,-557 83,-808l0 -1338c0,-16 8,-23 24,-23l471 0c15,0 23,7 23,23l0 1116c0,29 3,56 8,80 6,23 12,46 20,67l-4 0c29,68 81,132 154,192 74,59 164,89 270,89 142,0 284,-48 344,-145 61,-96 91,-227 91,-393l0 -1006c0,-16 8,-23 24,-23l459 0c16,0 24,8 24,23l0 1089c0,174 -22,318 -67,431 -45,114 -103,203 -174,267 -72,65 -151,110 -238,137 -159,48 -392,55 -552,6 -73,-23 -137,-51 -192,-85 -56,-35 -102,-72 -139,-113 -37,-41 -67,-81 -92,-121 0,190 -31,378 -72,563 -5,24 -7,37 -7,40 -6,13 -16,21 -29,19l-409 -59z"/>
   <path class="fil0" d="M7776 2834c16,0 24,-8 24,-24l0 -1892c0,-16 -8,-23 -24,-23l-471 0c-16,0 -24,7 -24,23l0 1892c0,16 8,24 24,24l471 0z"/>
   <path class="fil1" d="M7303 102l475 0c25,0 45,19 45,41l0 514c0,22 -20,41 -45,41l-475 0c-24,0 -45,-19 -45,-41l0 -514c0,-22 21,-41 45,-41z"/>
   <g>
    <path class="fil2" d="M6656 4275l254 0c0,4 0,10 0,17 1,18 1,31 1,38 0,81 -25,144 -77,189 -52,45 -125,67 -219,67 -52,0 -99,-7 -140,-21 -42,-14 -78,-35 -109,-63 -30,-28 -53,-60 -69,-98 -17,-38 -25,-78 -25,-121 0,-43 8,-84 25,-121 16,-36 41,-69 73,-97 32,-28 68,-49 110,-63 42,-14 87,-22 135,-22 51,0 96,9 136,25 40,17 75,42 107,76l-76 52c-22,-23 -47,-39 -74,-51 -27,-11 -57,-16 -91,-16 -70,0 -126,20 -170,60 -44,40 -66,92 -66,156 0,66 22,119 66,159 44,41 101,61 171,61 60,0 107,-12 141,-37 34,-25 51,-59 51,-102l0 -9 -154 0 0 -79z"/>
    <path class="fil2" d="M5484 4571l0 -600 408 353c11,10 22,20 34,31 11,12 23,25 36,39l0 -401 96 0 0 601 -416 -360c-11,-10 -22,-20 -32,-31 -11,-11 -21,-22 -30,-34l0 402 -96 0z"/>
    <polygon class="fil2" points="5135,4571 5135,3993 5239,3993 5239,4571 "/>
    <path class="fil2" d="M4909 4134c-30,-23 -61,-40 -94,-51 -33,-11 -67,-17 -103,-17 -71,0 -128,20 -172,61 -44,40 -66,93 -66,157 0,62 22,114 65,154 42,41 97,61 162,61 38,0 74,-6 108,-18 34,-12 67,-30 99,-55l0 106c-28,18 -59,32 -92,41 -33,9 -69,13 -107,13 -49,0 -94,-7 -136,-21 -42,-15 -78,-36 -110,-64 -31,-28 -55,-61 -72,-98 -17,-37 -25,-77 -25,-120 0,-42 8,-82 25,-119 17,-37 41,-70 73,-98 32,-29 68,-50 110,-65 41,-14 85,-22 133,-22 38,0 74,5 108,15 34,10 67,25 99,45l-5 95z"/>
    <polygon class="fil2" points="4144,4571 3945,4147 3742,4571 3633,4571 3944,3971 4254,4571 "/>
    <path class="fil2" d="M3220 4312l0 259 -98 0 0 -578 146 0c42,0 75,3 99,8 24,5 44,13 60,24 20,14 35,33 46,55 11,22 17,46 17,72 0,46 -13,83 -38,109 -25,26 -61,42 -110,47l221 263 -117 0 -214 -259 -12 0zm6 -72l19 0c56,0 92,-6 110,-18 19,-11 28,-32 28,-61 0,-32 -10,-54 -29,-67 -20,-14 -56,-20 -109,-20l-19 0 0 166z"/>
    <path class="fil2" d="M2410 4286c-1,-5 -3,-17 -5,-37 -3,-17 -5,-31 -7,-42 -2,13 -6,26 -11,39 -5,13 -11,27 -18,41l-168 307 -168 -314c-7,-13 -13,-25 -18,-37 -5,-12 -10,-24 -13,-36 -1,12 -2,25 -4,38 -2,13 -4,27 -8,42l-69 284 -96 0 152 -602 189 365c3,5 7,15 13,28 6,14 14,30 22,50 6,-17 16,-38 29,-63 4,-7 6,-12 8,-16l185 -364 155 602 -97 0 -71 -285z"/>
    <polygon class="fil2" points="1538,4571 1538,3993 1642,3993 1642,4571 "/>
    <path class="fil2" d="M911 4455l84 -34c8,25 22,45 43,59 21,13 48,20 81,20 31,0 56,-8 74,-23 18,-16 27,-37 27,-63 0,-34 -31,-64 -94,-90 -8,-4 -15,-7 -20,-9 -71,-31 -118,-59 -141,-84 -24,-26 -36,-56 -36,-93 0,-47 18,-85 54,-114 35,-29 82,-44 139,-44 48,0 87,8 119,25 32,16 54,40 66,71l-81 38c-13,-19 -27,-32 -42,-40 -16,-9 -33,-13 -53,-13 -28,0 -51,7 -67,20 -17,13 -25,31 -25,53 0,34 36,67 109,97 5,2 10,4 13,5 64,27 107,52 131,77 23,26 35,57 35,95 0,54 -19,98 -57,130 -39,32 -90,48 -156,48 -54,0 -99,-11 -134,-34 -35,-22 -58,-55 -69,-97z"/>
   </g>
  </g>
 </g>
</svg>
